<?xml version="1.0" encoding="utf-8" ?>
<svg xmlns="http://www.w3.org/2000/svg" xmlns:xlink="http://www.w3.org/1999/xlink" width="175" height="172">
	<path transform="scale(0.343456 0.337212)" d="M372.508 223.859C362.763 249.478 330.106 260.431 305.856 265.66C268.434 273.728 227.397 272.797 190.566 261.75C170.916 255.856 147.679 244.902 139.85 224.413C137.347 217.863 137.066 211.365 137.059 204.45L137.132 134.448C136.331 133.675 135.431 133.554 134.433 133.158L80.2334 111.695C76.3094 110.199 70.0232 108.644 68.6102 104.107C67.146 99.4047 70.8441 96.8572 74.5948 95.044L245.522 21.0911C248.793 19.6799 252.04 18.1814 255.501 17.3024C261.351 17.7019 269.038 22.2341 274.437 24.586L437.469 94.5551C439.778 95.6729 442.133 96.8122 443.32 99.2325C445.977 104.649 441.461 106.587 438.702 108.946L438.58 200.737C438.587 201.371 438.472 201.116 438.855 201.531L440.798 202.145C445.883 204.014 449.577 208.624 451.782 213.415C461.086 233.629 442.094 254.797 420.742 246.153C403.389 239.126 402.629 212.509 418.42 203.442C419.799 202.65 421.253 202.152 422.717 201.549L422.715 115.495C421.108 116.642 418.031 117.18 416.104 117.954L379.046 131.905C377.116 132.573 375.15 132.095 375.115 134.532L375.046 205.511C375.032 212.268 374.823 217.413 372.508 223.859ZM255.076 34.2354L98.8528 101.69C103.657 103.316 108.32 105.493 113.031 107.382L246.267 160.474C257.091 164.627 252.181 165.623 261.799 161.838L311.828 141.608C322.398 137.333 333.366 133.462 343.619 128.478L339.497 127.194L265.515 106.566C261.483 105.518 257.093 104.663 253.236 103.139C244.499 99.6869 248.482 86.5619 258.394 88.0945C261.832 88.6262 265.258 89.9249 268.632 90.8042L347.884 113.26L364.736 118.8C366.424 119.363 366.494 119.507 368.164 118.967L398.314 107.698C399.967 107.07 413.321 102.241 413.62 101.742L259.301 35.516C258.016 34.988 256.476 34.1373 255.076 34.2354ZM359.059 139.375L269.044 176.395C261.088 179.62 257.506 182.172 249.128 178.967L156.562 141.302C155.298 140.796 153.879 140.709 152.802 139.855L152.771 168.375L152.805 176.285C152.813 177.854 152.694 179.543 152.958 181.089C169.492 193.241 208.137 202.676 228.159 205.827C235.084 206.917 242.108 207.916 249.117 208.171C279.732 209.282 325.454 199.35 353.435 184.518C355.077 183.647 358.053 182.468 359.279 181.115L359.059 139.375ZM359.257 198.425C349.733 204.842 337.568 208.663 326.727 212.034C296.635 221.39 265.815 226.725 234.394 222.679L212.243 219.139C200.123 216.783 160.686 205.768 152.665 198.628C152.776 208.861 152.07 215.555 158.223 224.536C167.533 236.796 182.554 242.989 196.923 247.147C237.405 258.865 310.531 259.641 346.071 232.423C352.839 227.241 357.729 220.77 358.85 212.178L359.257 198.425ZM428.836 216.286C418.566 220.418 421.906 233.171 432.27 232.072C441.722 228.994 440.637 215.899 428.836 216.286Z"/>
	<path transform="scale(0.343456 0.337212)" d="M413.938 439.309C411.245 439 408.417 439.067 405.704 438.943L382.553 438.462C352.111 438.462 318.64 439.622 296.065 463.149C282.385 477.405 276.418 493.988 252.664 492.135C235.357 490.786 229.123 478.687 219.08 466.794C196.222 439.722 162.516 438.493 129.337 438.49L105.765 438.597L59.8878 443.906C50.3594 445.59 40.9014 447.737 31.6082 450.437C26.7853 451.839 21.991 453.904 17.0961 454.963C4.66181 457.651 6.65876 444.419 7.68052 436.836C10.1371 418.603 14.3473 404.13 20.0677 386.654L42.1803 312.47C43.4283 307.877 43.7889 303.289 48.7656 301.375C60.1086 297.012 83.4744 295.732 95.5312 295.627L120.693 295.759L138.5 297.447C178.704 302.185 215.677 315.512 247.695 340.654C250.591 342.928 253.377 345.573 256.396 347.65L269.632 336.754C306.344 309.631 349.825 297.33 395.18 295.684L424.5 295.699C432.622 296.036 462.274 297.404 467.101 304.438C468.246 306.106 468.686 308.474 469.2 310.412L490.355 382.301C493.789 392.979 497.889 403.601 500.452 414.522C502.063 421.388 506.064 442.167 504.729 449.08C504.15 452.079 499.564 455.961 496.348 455.121L477.47 449.504C468.765 447.049 459.838 445.093 450.914 443.625L425.002 440.241C421.407 439.868 417.46 440.011 413.938 439.309ZM99.1589 311.377C93.8649 311.415 62.3558 313.024 58.0472 314.876L34.7397 393.641L70.6191 382.823C84.1788 379.614 98.1355 377.531 112 376.202L123.829 375.093L162.284 375.072C171.826 375.581 181.226 376.824 190.606 378.617C209.192 382.734 224.64 389.151 240.804 399.127L245.348 401.973C246.401 402.605 247.177 402.741 248.097 403.614L248.266 365.266C248.265 360.723 247.533 361.493 244.417 358.699C213.248 330.749 173.507 316.429 132.264 312.441L123.986 311.589C115.79 311.083 107.377 311.32 99.1589 311.377ZM396.917 311.377C392.776 311.443 388.477 311.354 384.375 311.948L368.568 313.963C332.171 319.81 302.104 331.132 272.619 354.411C270.896 355.771 264.743 360.216 263.87 361.871L264.219 403.224C264.933 402.276 268.886 400.298 270.148 399.447C289.338 386.503 313.207 378.98 335.941 376.07L344.402 375.102C351.189 374.658 358.083 374.845 364.887 374.84L388.208 375.084L406.969 376.997C429.143 379.698 456.599 385.205 477.566 393.777L453.966 314.856C447.242 313.46 440.376 312.892 433.539 312.375L396.917 311.377ZM130.081 390.602C102.317 391.259 71.3843 397.76 45.4457 406.909L27.6684 414.062C26.7125 416.581 26.2805 419.285 25.8092 421.931L23.6583 436.039L62.6162 427.355L102.22 422.915L148.402 422.87C177.896 424.091 209.126 431.095 229.349 454.144C237.963 463.961 244.781 479.52 260.664 475.619C269.403 473.473 273.904 464.861 279.177 458.349C296.301 437.204 318.912 427.806 345.297 424.447L366.062 422.739L405.169 422.888L415.252 423.811C435.835 425.129 453.432 427.471 473.725 432.201L483.734 434.745C484.914 435.078 486.948 436.051 488.045 435.94C487.583 432.514 485.918 416.455 484.076 415.053C464.698 400.301 405.485 391.787 382.5 390.667L366.374 390.58C325.332 390.616 296.534 397.741 264.658 423.577C254.576 431.749 253.363 429.03 243.803 420.835C215.395 396.48 182.023 390.569 146.066 390.561L130.081 390.602Z"/>
	<path transform="scale(0.343456 0.337212)" d="M197.154 367.677C184.425 360.553 170.015 356.005 155.691 353.492L143.372 351.795C138.587 351.042 133.706 351.115 128.875 351.113L113.875 351.165C108.369 351.263 97.3542 352.722 97.2088 343.642C97.0821 335.736 105.495 335.298 111.459 335.256L119.885 335.228C148.322 335.038 171.526 337.791 197.978 350.52C202.458 352.676 213.134 357.469 214.591 362.247C215.816 366.263 212.982 371.283 208.875 372.231C205.147 373.092 200.278 369.504 197.154 367.677Z"/>
	<path transform="scale(0.343456 0.337212)" d="M326.688 362.153L309.827 370.442C298.78 376.142 294.88 365.033 299.297 359.774C302.018 356.535 306.657 354.354 310.338 352.409C331.015 341.483 353.68 336.869 376.846 335.295L405.162 335.292C417.973 335.52 416.311 349.641 408.707 351.321C406.203 351.874 402.749 351.246 400.159 351.177L389.032 351.089C366.608 351.072 347.906 353.317 326.688 362.153Z"/>
</svg>
